PathFileType	4	(X/Y/Z)	C:\Users\WrightLab\Desktop\Jo\P5V211.trc
DataRate	CameraRate	NumFrames	NumMarkers	Units	OrigDataRate	OrigDataStartFrame	OrigNumFrames
100.00	100.00	       32	19	mm	100.00	1	       754
Frame#	Time	Headset_Front			Headset_Back			Headset_Left			Headset_Right			Left_Shoulder			Right_Shoulder			Sternum			C7			Left Elbow			Right Elbow			Left Wrist			Right Wrist			Left ASIS			Right ASIS			S2			Left Knee			Right Knee			Left Ankle			Right Ankle			
		X1	Y1	Z1	X2	Y2	Z2	X3	Y3	Z3	X4	Y4	Z4	X5	Y5	Z5	X6	Y6	Z6	X7	Y7	Z7	X8	Y8	Z8	X9	Y9	Z9	X10	Y10	Z10	X11	Y11	Z11	X12	Y12	Z12	X13	Y13	Z13	X14	Y14	Z14	X15	Y15	Z15	X16	Y16	Z16	X17	Y17	Z17	X18	Y18	Z18	X19	Y19	Z19	

1	0.000																												-491.08023	1169.13513	-1418.89697	61.93414	949.49487	-1292.33459	-434.16336	1048.54431	-1223.30371										-31.84350	471.66013	-1343.70703	-395.08731	471.61932	-1356.37134							
2	0.010																												-491.61240	1169.20508	-1418.73511	61.82053	949.54602	-1291.94653	-434.20148	1048.55676	-1223.31226										-31.64365	471.98270	-1342.49280	-394.91501	471.51065	-1356.34143							
3	0.020																												-491.78299	1169.19165	-1418.89404	61.74070	949.61145	-1291.57703	-434.40475	1048.27649	-1223.44666										-31.03438	471.58316	-1341.97803	-394.40845	471.36240	-1355.73621							
4	0.030																												-492.19528	1169.47302	-1419.49585	61.54682	949.65125	-1291.29871	-434.44266	1048.26440	-1223.45276										-30.82066	471.89066	-1340.67493	-394.60452	471.21912	-1355.57031							
5	0.040																												-492.39777	1169.42004	-1419.63037	61.32623	949.63666	-1290.86499	-434.56152	1048.11389	-1223.52283										-30.59718	472.26624	-1339.31812	-394.42102	471.31442	-1355.21826							
6	0.050																												-492.58456	1169.40173	-1419.71790	61.09803	949.66876	-1290.58350	-434.98044	1047.91833	-1223.39197										-30.43229	472.45163	-1338.30676	-394.33060	471.38779	-1354.89600							
7	0.060																												-492.77710	1169.40540	-1420.00305	60.92150	949.15558	-1289.36694	-435.94983	1047.84265	-1223.25586										-30.33591	472.56821	-1337.71631	-394.50446	471.17249	-1354.55969							
8	0.070																												-492.97922	1169.34485	-1420.18274	60.29078	949.18054	-1289.12231	-435.97418	1047.83740	-1223.26001										-30.25265	472.66003	-1337.20520	-394.44205	471.13535	-1354.54895							
9	0.080																												-493.48560	1169.03589	-1419.48938	60.03616	949.17126	-1288.84082	-436.08768	1047.71289	-1223.57471										-28.41917	470.49487	-1342.03979	-394.37128	471.50833	-1353.45374							
10	0.090																												-493.67511	1169.03137	-1419.73108	59.73755	949.15283	-1288.49133	-436.70776	1048.12939	-1223.54504										-28.27346	470.61469	-1341.13831	-394.37537	471.52505	-1353.06897							
11	0.100																												-493.82236	1168.94141	-1419.87280	59.41249	949.10370	-1288.18359	-437.72144	1047.82507	-1223.45776										-27.12775	469.19534	-1343.41748	-394.45139	471.49057	-1352.78101							
12	0.110																												-493.94662	1168.92529	-1420.13208	58.29834	948.97235	-1287.41943	-438.10352	1047.71313	-1223.39526										-26.88378	469.52881	-1341.92078	-394.36639	471.79498	-1352.08728							
13	0.120																												-494.07617	1168.87207	-1420.27625	58.02576	948.94232	-1287.12183	-438.41528	1047.58142	-1223.45093										-26.36955	470.39346	-1338.78430	-394.42255	471.78445	-1352.09204							
14	0.130																												-494.14740	1168.86023	-1420.34363	57.73683	948.89917	-1286.62964	-438.75552	1047.70862	-1223.68481										-26.11168	470.64682	-1335.20154	-394.46591	471.80905	-1352.09937							
15	0.140																												-494.54279	1168.55774	-1419.63660	57.13653	949.25482	-1286.83716	-439.51016	1047.89990	-1223.62231										-25.25192	470.60577	-1333.75342	-394.50763	471.76328	-1352.09875							
16	0.150																												-494.84750	1168.82092	-1420.11841	56.40496	949.25848	-1286.66870	-439.66409	1047.94287	-1223.65613										-24.82562	471.30453	-1331.15039	-395.03305	471.23816	-1352.03003							
17	0.160																												-494.95404	1168.85193	-1420.37537	56.05212	949.23932	-1286.45898	-440.01498	1047.86389	-1223.77771										-24.47030	471.10602	-1329.53149	-395.17987	471.12967	-1351.84082							
18	0.170																												-495.02353	1168.82654	-1420.46997	55.71677	949.28937	-1286.08887	-440.42853	1047.65320	-1223.82483										-24.34953	471.26480	-1328.78943	-395.31995	471.04480	-1351.59705							
19	0.180																												-495.10291	1168.82043	-1420.58142	55.35265	949.27679	-1285.75330	-440.98511	1047.48047	-1223.73987										-24.14094	470.80103	-1328.06299	-395.33530	471.02594	-1351.59668							
20	0.190																												-495.16681	1168.77307	-1420.64148	54.61547	949.34619	-1285.66638	-441.56775	1047.32019	-1223.66089										-24.01221	470.90500	-1327.26440	-395.34241	470.98712	-1351.59314							
21	0.200																												-495.21735	1168.79285	-1420.74194	53.72028	948.91510	-1284.59888	-441.85480	1047.23120	-1224.01184										-23.87720	471.13168	-1326.44055	-395.38828	471.03238	-1351.20398							
22	0.210																												-495.27567	1168.79785	-1420.80078	53.54365	948.51721	-1283.40979	-442.05301	1047.15247	-1223.84912										-23.37467	470.37628	-1327.15491	-395.57092	470.96652	-1350.88867							
23	0.220																												-495.33322	1168.83276	-1420.83716	53.08278	948.22443	-1282.70178	-442.24951	1047.00171	-1223.84143										-23.27359	470.56073	-1326.53943	-395.59189	470.90533	-1350.57605							
24	0.230																												-495.35318	1168.81335	-1420.77124	52.69911	948.26740	-1282.69092	-442.38229	1046.90234	-1224.14575										-23.19774	470.66229	-1326.07324	-395.82507	470.90509	-1350.41040							
25	0.240																												-495.34763	1168.86011	-1420.75403	52.31481	948.28503	-1282.64612	-442.40018	1046.89478	-1224.14844										-23.14714	470.76080	-1325.76575	-395.85123	470.89719	-1350.42041							
26	0.250																												-495.38403	1168.88892	-1420.58435	51.11261	948.90033	-1283.41492	-442.38049	1046.44470	-1224.04797										-23.30701	470.34015	-1324.73596	-396.16562	470.97775	-1350.12219							
27	0.260																												-495.37793	1168.98901	-1420.46460	50.75952	948.94757	-1283.16357	-442.50763	1046.29382	-1224.12866										-23.31095	470.31522	-1324.75793	-396.54581	471.01889	-1350.44653							
28	0.270																												-495.39346	1169.02515	-1420.33691	50.44948	948.98810	-1283.09668	-442.67221	1046.07874	-1223.87415										-23.31526	470.25098	-1324.77771	-396.54691	471.01007	-1350.44617							
29	0.280																												-495.42993	1169.07361	-1420.25403	50.18553	948.99756	-1282.99292	-442.71060	1046.07458	-1223.57007										-23.32226	470.21762	-1324.81799	-396.61554	471.00000	-1350.47363							
30	0.290																												-495.42975	1169.10400	-1420.06030	49.63174	948.22345	-1281.34180	-442.66183	1046.22778	-1222.95435										-23.36388	470.02591	-1325.05798	-396.84976	470.79568	-1350.71191							
31	0.300																												-495.78546	1169.21582	-1419.57825	49.40079	948.26337	-1281.14685	-442.66043	1046.22668	-1222.95398										-23.41698	469.86612	-1325.37390	-396.85226	470.81494	-1350.71448							
32	0.310																												-495.79825	1169.22839	-1419.43945	49.18965	948.26135	-1280.95288	-442.65823	1046.22498	-1222.95337										-23.47585	469.69049	-1325.72424	-396.68381	471.01349	-1350.50281							
